<svg width="48" height="50" viewBox="0 0 48 50" fill="none" xmlns="http://www.w3.org/2000/svg">
<path d="M2.05713 13.0646V42.2646C3.31427 39.4646 7.8857 33.4646 7.8857 33.4646C7.8857 33.4646 12.6917 27.3559 15.7143 23.8646C15.7143 23.8646 20.5633 18.1192 24 14.8361C26.3437 12.5971 30.2286 9.35035 30.2286 9.35035C30.2286 9.35035 27.0374 11.3867 25.1428 12.8932C23.991 13.8091 22.2857 15.3504 22.2857 15.3504C22.2857 15.3504 21.0852 16.377 20.3428 17.0646C18.9189 18.3836 18.2346 19.1957 16.8571 20.6075C12.6803 24.8885 9.73332 28.7599 6.85713 32.2075C7.82856 28.7218 10.4571 24.0361 13.3714 19.9218C16.1937 15.9374 19.8286 12.3789 19.8286 12.3789C19.8286 12.3789 22.8 9.57892 23.7143 8.83607C27.1886 5.77321 32.0952 3.29321 34.1143 2.43606C34.7086 2.07035 37.3714 1.3313 38.6286 1.00749C38.7657 0.916065 40.7047 0.626541 41.6571 0.493207C42.7086 0.356065 45.9047 0.626541 47.3714 0.778922C46.32 0.458922 43.9428 0.0932072 42.8 0.0360645C41.6571 -0.0210782 41.1238 -0.00203073 40.3428 0.0360645C39.5619 0.0741598 37.7064 0.245713 36.0571 0.607493C33.6305 1.1398 32.3075 1.66914 30.0571 2.72178C28.3647 3.51343 26.8571 4.47416 25.8857 5.06464H10.5143C4.15999 5.56749 2.22856 10.6075 2.05713 13.0646Z" fill="#1A3C6A"/>
<path d="M3.6 42.6646C3.6 42.6646 1.54286 46.4361 0 49.1218L5.94286 42.7789H31.2571C37.3829 42.3218 39.3714 37.3694 39.6 34.9503V14.3218C35.8514 16.4246 31.7524 17.217 30.1714 17.3503C30.9714 17.6361 33.0743 17.9446 34.9143 17.6932C36.3968 17.4907 37.8857 16.8742 38.5714 16.5503C37.3714 17.9218 33.6539 21.1385 29.9429 23.2361C28.6286 23.9789 27.9429 24.4361 26.3429 24.6646C23.9988 24.9995 20.4381 24.5884 18.8 24.3218C21.1429 25.5218 25.0476 25.6932 27.1429 25.6932C26.64 26.7446 24.7807 28.5102 22.8571 29.8075C21.4671 30.745 20.9486 31.0646 19.0286 31.7503C17.1086 32.4361 15.1429 32.5313 14.4 32.4932C13.6571 32.4551 12.8914 32.4018 12.3429 32.4932C11.7943 32.5846 11.3052 32.7551 10.7429 33.1218C9.42857 33.9789 8.59796 34.904 7.54286 36.3218C5.71429 38.7789 3.6 42.6646 3.6 42.6646Z" fill="#1A90CD"/>
</svg>
